<?xml version="1.0" encoding="utf-8"?>
<!-- Generator: Adobe Illustrator 19.0.0, SVG Export Plug-In . SVG Version: 6.00 Build 0)  -->
<svg version="1.1" id="plane_route_svg" xmlns="http://www.w3.org/2000/svg" xmlns:xlink="http://www.w3.org/1999/xlink" x="0px" y="0px"
	 viewBox="0 0 908 203" style="enable-background:new 0 0 908 203;" xml:space="preserve">
<style type="text/css">	
		.plane_route{fill:none;stroke:#FFFFFF;stroke-width:2.9945;stroke-linecap:round;stroke-miterlimit:10;stroke-dasharray:14.9724,9.9816,14.9724,9.9816,14.9724,9.9816;}
</style>
<path class="plane_route" id="plane_route" d="M0,199c0,0,109.6-73,148.5-97.5S292.9,27,324.8,20s97.6-17,134.5-9S552,31,591.8,45s124.5,44,163.4,52
	c38.9,8,94.7,22,118.6,4.5C897.7,84,904.7,82,904.7,59s-21.9-42.9-34.9-51S812,0.1,804,8c-8,8-28.9,27-29.9,47s-6,47,23.9,76
	c29.9,29,29.9,21,40.8,28"/>
</svg>
