<?xml version="1.0" encoding="utf-8"?>
<!-- Generator: Adobe Illustrator 19.0.0, SVG Export Plug-In . SVG Version: 6.00 Build 0)  -->
<svg version="1.1" id="Layer_1_copy" xmlns="http://www.w3.org/2000/svg" xmlns:xlink="http://www.w3.org/1999/xlink" x="0px"
	 y="0px" viewBox="0 0 519.7 108.6" style="enable-background:new 0 0 519.7 108.6;" xml:space="preserve">
<style type="text/css">
	.st0{fill:#FFFFFF;stroke:#000000;stroke-width:0.512;stroke-miterlimit:10;}
	.st1{stroke:#000000;stroke-width:0.3401;stroke-miterlimit:10;}
</style>
<rect id="C4" class="st0" width="17.9" height="108.6"/>
<rect id="D4" x="17.9" class="st0" width="17.9" height="108.6"/>
<rect id="E4" x="35.8" class="st0" width="17.9" height="108.6"/>
<rect id="F4" x="53.8" class="st0" width="17.9" height="108.6"/>
<rect id="G4" x="71.7" class="st0" width="17.9" height="108.6"/>
<rect id="A4" x="89.6" class="st0" width="17.9" height="108.6"/>
<rect id="B4" x="107.5" class="st0" width="17.9" height="108.6"/>
<rect id="C5" x="125.5" class="st0" width="17.9" height="108.6"/>
<rect id="D5" x="143.4" class="st0" width="17.9" height="108.6"/>
<rect id="E5" x="161.3" class="st0" width="17.9" height="108.6"/>
<rect id="F5" x="179.2" class="st0" width="17.9" height="108.6"/>
<rect id="G5" x="197.1" class="st0" width="17.9" height="108.6"/>
<rect id="A5" x="215.1" class="st0" width="17.9" height="108.6"/>
<rect id="B5" x="233" class="st0" width="17.9" height="108.6"/>
<rect id="C6" x="250.9" class="st0" width="17.9" height="108.6"/>
<rect id="D6" x="268.8" class="st0" width="17.9" height="108.6"/>
<rect id="E6" x="286.7" class="st0" width="17.9" height="108.6"/>
<rect id="F6_1_" x="304.7" class="st0" width="17.9" height="108.6"/>
<rect id="G6_1_" x="322.6" class="st0" width="17.9" height="108.6"/>
<rect id="A6_1_" x="340.5" class="st0" width="17.9" height="108.6"/>
<rect id="B6_1_" x="358.4" class="st0" width="17.9" height="108.6"/>
<rect id="C7_1_" x="376.4" class="st0" width="17.9" height="108.6"/>
<rect id="D7_1_" x="394.3" class="st0" width="17.9" height="108.6"/>
<rect id="E7_1_" x="412.2" class="st0" width="17.9" height="108.6"/>
<rect id="F7_1_" x="430.1" class="st0" width="17.9" height="108.6"/>
<rect id="G7_1_" x="448" class="st0" width="17.9" height="108.6"/>
<rect id="A7_1_" x="466" class="st0" width="17.9" height="108.6"/>
<rect id="B7_1_" x="483.9" class="st0" width="17.9" height="108.6"/>
<rect id="C8" x="501.8" class="st0" width="17.9" height="108.6"/>
<rect id="Db4" x="11.7" class="st1" width="12.4" height="69"/>
<rect id="Eb4" x="29.6" class="st1" width="12.4" height="69"/>
<rect id="Gb4" x="65.5" class="st1" width="12.4" height="69"/>
<rect id="Ab4" x="83.4" class="st1" width="12.4" height="69"/>
<rect id="Bb4" x="101.3" class="st1" width="12.4" height="69"/>
<rect id="Db5" x="137.2" class="st1" width="12.4" height="69"/>
<rect id="Eb5" x="155.1" class="st1" width="12.4" height="69"/>
<rect id="Gb5_2_" x="190.9" class="st1" width="12.4" height="69"/>
<rect id="Ab5_1_" x="208.8" class="st1" width="12.4" height="69"/>
<rect id="Bb5" x="226.8" class="st1" width="12.4" height="69"/>
<rect id="Db6" x="262.6" class="st1" width="12.4" height="69"/>
<rect id="Eb6" x="280.5" class="st1" width="12.4" height="69"/>
<rect id="Gb6" x="316.4" class="st1" width="12.4" height="69"/>
<rect id="Ab6" x="334.3" class="st1" width="12.4" height="69"/>
<rect id="Bb6" x="352.2" class="st1" width="12.4" height="69"/>
<rect id="Db7" x="388.1" class="st1" width="12.4" height="69"/>
<rect id="Eb7" x="406" class="st1" width="12.4" height="69"/>
<rect id="Gb7" x="441.8" class="st1" width="12.4" height="69"/>
<rect id="Ab7" x="459.7" class="st1" width="12.4" height="69"/>
<rect id="Bb7" x="477.7" class="st1" width="12.4" height="69"/>
</svg>
