<?xml version="1.0" encoding="utf-8"?>
<!-- Generator: Adobe Illustrator 19.0.0, SVG Export Plug-In . SVG Version: 6.00 Build 0)  -->
<svg version="1.1" id="Layer_1" xmlns="http://www.w3.org/2000/svg" xmlns:xlink="http://www.w3.org/1999/xlink" x="0px" y="0px"
	 viewBox="-24 26 50 50" style="enable-background:new -24 26 50 50;" xml:space="preserve">
<style type="text/css">
	.st0{fill:#232323;}
	.st1{opacity:0.3;}
	.st2{fill:#FFFFFF;}
</style>
<path class="st0" d="M21,27h-40c-2.2,0-4,1.8-4,4v40c0,2.2,1.8,4,4,4h40c2.2,0,4-1.8,4-4V31C25,28.8,23.2,27,21,27z"/>
<rect x="-24" y="26" class="st0" width="50" height="50"/>
<polygon class="st1" points="1.1,35.9 15.9,45.5 26,54.8 26,76 6.4,76 -13.6,56.8 -13.7,45.5 "/>
<path id="wtf" class="st2" d="M16,46.2v-0.1c0,0,0,0,0-0.1v-0.1c0,0,0,0,0-0.1v-0.1c0,0,0,0,0-0.1c0,0,0-0.1-0.1-0.1c0,0,0,0,0-0.1
	c0,0,0,0-0.1-0.1c0,0,0,0-0.1,0c0,0,0,0-0.1-0.1c0,0,0,0-0.1,0l0,0L1.8,36.1c-0.4-0.3-1-0.3-1.4,0l-13.7,9.1l0,0c0,0,0,0-0.1,0
	c0,0,0,0-0.1,0.1c0,0,0,0-0.1,0c0,0,0,0-0.1,0.1c0,0,0,0,0,0.1c0,0,0,0.1-0.1,0.1c0,0,0,0,0,0.1v0.1c0,0,0,0,0,0.1V46c0,0,0,0,0,0.1
	v0.1c0,0,0,0,0,0.1c0,0.1,0,0.1,0,0.2v9.1c0,0.1,0,0.1,0,0.2c0,0,0,0,0,0.1V56c0,0,0,0,0,0.1v0.1c0,0,0,0,0,0.1v0.1c0,0,0,0,0,0.1
	c0,0,0,0.1,0.1,0.1c0,0,0,0,0,0.1c0,0,0,0,0.1,0.1c0,0,0,0,0.1,0.1c0,0,0,0,0.1,0.1c0,0,0,0,0.1,0l0,0l13.7,9.1
	c0.2,0.1,0.5,0.2,0.7,0.2s0.5-0.1,0.7-0.2L15.5,57l0,0c0,0,0,0,0.1,0c0,0,0.1,0,0.1-0.1c0,0,0,0,0.1-0.1c0,0,0,0,0.1-0.1
	c0,0,0,0,0-0.1c0,0,0-0.1,0.1-0.1c0,0,0,0,0-0.1v-0.1c0,0,0,0,0-0.1v-0.1c0,0,0,0,0-0.1v-0.1c0,0,0,0,0-0.1c0,0,0-0.1,0-0.2v-9.1
	C16,46.4,16,46.3,16,46.2L16,46.2z M1,54l-4.6-3L1,48l4.6,3L1,54z M-0.3,45.7l-5.6,3.7l-4.5-3l10.1-6.7C-0.3,39.7-0.3,45.7-0.3,45.7
	z M-8.2,51l-3.2,2.2v-4.3L-8.2,51z M-5.9,52.5l5.6,3.7v6l-10.1-6.7L-5.9,52.5z M2.3,56.3l5.6-3.7l4.5,3L2.3,62.3
	C2.3,62.3,2.3,56.3,2.3,56.3z M10.2,51l3.2-2.2v4.3L10.2,51z M7.9,49.4l-5.6-3.7v-6l10.1,6.7L7.9,49.4z"/>
</svg>
