<?xml version="1.0" encoding="utf-8"?>
<!-- Generator: Adobe Illustrator 19.0.0, SVG Export Plug-In . SVG Version: 6.00 Build 0)  -->
<svg version="1.1" id="Layer_1" xmlns="http://www.w3.org/2000/svg" xmlns:xlink="http://www.w3.org/1999/xlink" x="0px" y="0px"
	 viewBox="-139 81 100 100" style="enable-background:new -139 81 100 100;" xml:space="preserve">
<path id="j_left" d="M-81.9,87.9c-4.8,0.2-5.6,1-5.6,6.7v28.6c0,2,0,4.2,0,6.4c0,5-0.2,10.2-1.4,14c-2.3,7.2-10.3,12.7-21.9,12.7
	c-2.7,0-6.3-0.3-8.7-1.5c-2.8-1.4-3.9-3.4-3.9-5.8c0-3.7,3.1-6,7.7-6c4.3,0,7,1.9,7,5.8c0,2.3-1.3,4.7-4.5,5.9
	c0.5,0.1,1,0.1,1.4,0.1c3.5,0,5.9-2.2,6.9-4.9c1.6-4.5,1.6-8.7,1.6-19.4V94.6c0-5.7-0.9-6.5-5.6-6.7v-1.6c2.8,0.2,7.8,0.2,13.1,0.2
	c5.1,0,10.6-0.1,13.8-0.2V87.9z"/>
<path id="j_right" d="M-67.4,88c-4.8,0.3-5.6,1.3-5.6,8.6v36.8c0,2.5,0,5.4,0,8.2c0,6.4-0.2,13.1-1.4,17.9
	c-2.3,9.3-10.3,16.4-21.9,16.4c-2.7,0-6.3-0.4-8.7-1.9c-2.8-1.8-3.9-3.3-3.9-6.5c0-4.8,3.4-6.7,8-6.7c3,0,6.7,1.5,6.7,6.4
	c0,2.9-1.3,5-4.5,6.5c0.5,0.1,1,0.1,1.4,0.1c3.5,0,5.9-2.9,6.9-6.3c1.6-5.8,1.6-11.1,1.6-25V96.7c0-7.3-0.9-8.3-5.6-8.6l-0.4-1.4
	c2.8,0.2,7.6-0.1,12.9-0.3c7.4-0.3,12.4-0.1,14.5-0.3V88z"/>
</svg>
