<?xml version="1.0" encoding="utf-8"?>
<!-- Generator: Adobe Illustrator 19.0.0, SVG Export Plug-In . SVG Version: 6.00 Build 0)  -->
<svg version="1.1" id="Layer_1" xmlns="http://www.w3.org/2000/svg" xmlns:xlink="http://www.w3.org/1999/xlink" x="0px" y="0px"
	 viewBox="0 0 380 260" style="enable-background:new 0 0 380 260;" xml:space="preserve">
<style type="text/css">
	.st0{fill:#FFFFFF;}
</style>
<path id="_x31_" class="st0" d="M46.9,158.9c0.7-0.1,1.2-0.4,1.7-1c0.4-0.6,0.8-1.2,1.1-2c0.3-0.8,0.5-1.6,0.6-2.5
	c0.1-0.9,0.2-1.7,0.3-2.5c0.1-0.7,0.2-1.3,0.5-1.6c0.3-0.4,0.6-0.6,0.9-0.6c0.3,0,0.5,0,0.8,0.1c0.3,0.1,0.6,0.3,0.8,0.5
	c0.3,0.2,0.5,0.5,0.7,0.8c0.2,0.3,0.3,0.6,0.3,1c0,0,0,0.1,0,0.2c0,0.1,0,0.2,0,0.3c-0.1,1.2-0.4,2.4-0.7,3.7
	c-0.3,1.3-0.8,2.5-1.5,3.7c-0.6,1.1-1.5,2.1-2.5,3c-1,0.8-2.2,1.3-3.7,1.5c-1.2,0.2-2.3,0-3.2-0.4s-1.7-1-2.4-1.8
	c-0.6,0.9-1.3,1.6-2.2,2.3c-0.9,0.7-2,1.1-3.3,1.2c-1.3,0.2-2.5,0.1-3.6-0.3c-1.1-0.4-2-1-2.8-1.8c-0.8-0.8-1.5-1.8-2-3.1
	c-0.5-1.2-0.9-2.5-1-4c-0.4-2.8-0.2-5.4,0.4-7.8c0.6-2.4,1.6-4.5,2.9-6.2c1.3-1.8,2.9-3.2,4.7-4.3c1.8-1.1,3.8-1.8,5.9-2
	c0.9-0.1,1.7,0,2.4,0.5c0.6,0.4,1,1.1,1.1,2c0.1,0.6,0.1,1,0,1.2c-0.1,0.2-0.3,0.4-0.6,0.4c-0.3,0-0.6,0.1-1,0.1c-0.3,0-0.7,0-1,0.1
	c-1.3,0.2-2.6,0.6-3.8,1.4c-1.3,0.7-2.3,1.8-3.3,3.1c-0.9,1.3-1.6,2.9-2.1,4.8c-0.5,1.9-0.5,4-0.2,6.5c0.2,1.8,0.8,3.1,1.6,4
	c0.8,0.9,1.8,1.2,3,1.1c0.9-0.1,1.7-0.6,2.2-1.3c0.5-0.8,0.9-1.7,1.2-2.7l-1.4-10.5c0-0.3-0.1-0.6-0.2-0.8c-0.1-0.2-0.1-0.4-0.2-0.6
	c-0.1-0.2-0.1-0.3-0.1-0.4c0-0.1-0.1-0.2-0.1-0.3c0-0.4,0.1-0.7,0.4-0.9c0.3-0.3,0.7-0.4,1.2-0.5c1.1-0.1,2.1,0,2.8,0.5
	s1.2,1.2,1.3,2l1.5,11.2c0,0.4,0.1,0.7,0.3,1.1c0.1,0.4,0.3,0.7,0.5,0.9c0.2,0.3,0.5,0.5,0.8,0.6C46.1,158.9,46.5,159,46.9,158.9z"
	/>
<path id="_x32_" class="st0" d="M76.4,129c0.8-0.1,1.7-0.4,2.6-0.8c0.9-0.4,1.8-0.9,2.6-1.6c0.9-0.6,1.6-1.4,2.4-2.2
	c0.7-0.8,1.4-1.7,1.9-2.6s0.9-1.9,1.2-2.9c0.3-1,0.3-2,0.2-2.9c-0.1-0.4-0.2-0.8-0.4-1.2c-0.2-0.4-0.5-0.8-0.9-1.1
	c-0.4-0.3-0.8-0.6-1.4-0.8c-0.6-0.2-1.2-0.2-2-0.1c-1.5,0.2-2.9,0.7-4.2,1.6c-1.3,0.9-2.4,2-3.4,3.4s-1.9,2.9-2.7,4.7
	c-0.8,1.8-1.3,3.6-1.8,5.5c-0.4,1.9-0.7,3.9-0.8,5.9c-0.1,2-0.1,3.9,0.2,5.7c0.3,2.1,0.7,4.1,1.4,6.1c0.6,1.9,1.5,3.6,2.5,5
	c1,1.4,2.3,2.5,3.7,3.2c1.5,0.7,3.2,1,5.2,0.7c1.4-0.2,2.7-0.6,3.8-1.1c1.1-0.6,2-1.2,2.8-1.8c0.8-0.6,1.3-1.2,1.7-1.6
	c0.4-0.5,0.6-0.7,0.6-0.8c0.2-0.5,0.5-0.9,0.9-1c0.4-0.1,0.7-0.1,1.1,0c0.4,0.1,0.7,0.4,1.1,0.7c0.3,0.3,0.6,0.7,0.8,1.1
	c0.2,0.4,0.3,0.8,0.4,1.2c0,0.4-0.1,0.8-0.3,1.1c0,0.1-0.2,0.2-0.4,0.6c-0.3,0.3-0.6,0.7-1.1,1.2c-0.5,0.5-1.1,1-1.8,1.6
	c-0.7,0.6-1.5,1.1-2.5,1.7c-0.9,0.5-2,1-3.1,1.4c-1.1,0.4-2.4,0.7-3.8,0.9c-2.4,0.3-4.7,0.1-6.7-0.7c-2.1-0.8-3.9-2-5.5-3.7
	c-1.6-1.7-2.9-3.8-3.9-6.4c-1.1-2.6-1.8-5.5-2.2-8.8c-0.3-2.2-0.3-4.5-0.2-6.9c0.2-2.4,0.6-4.7,1.2-7.1c0.6-2.3,1.4-4.5,2.5-6.7
	c1-2.1,2.3-4,3.7-5.7c1.4-1.7,3.1-3.1,5-4.2c1.9-1.1,3.9-1.8,6.2-2.1c1.2-0.2,2.4-0.1,3.5,0.1s2.1,0.7,3,1.3
	c0.9,0.7,1.6,1.5,2.2,2.6c0.6,1.1,1,2.3,1.2,3.8c0.2,1.4,0.1,2.8-0.3,4.2c-0.4,1.4-0.9,2.7-1.7,4c-0.8,1.3-1.7,2.5-2.7,3.7
	c-1.1,1.2-2.2,2.2-3.5,3.1c-1.2,0.9-2.5,1.6-3.9,2.2s-2.6,0.9-3.9,1.1c-0.8,0.1-1.6-0.1-2.2-0.5c-0.7-0.4-1.1-1.2-1.2-2.4
	c0-0.2,0-0.5,0-0.8c0-0.3,0-0.5,0.1-0.7c0-0.2,0.1-0.4,0.2-0.5c0.1-0.1,0.2-0.2,0.3-0.2c0.1,0,0.2,0,0.3,0.1
	c0.1,0.1,0.3,0.1,0.4,0.2c0.2,0.1,0.4,0.1,0.7,0.1C75.5,129.1,75.9,129.1,76.4,129z"/>
<path id="_x33_" class="st0" d="M95.1,112.7c-0.1-0.5-0.2-0.9-0.3-1.1c-0.1-0.3-0.2-0.5-0.3-0.7c-0.1-0.2-0.2-0.3-0.3-0.4
	c-0.1-0.1-0.1-0.2-0.2-0.3c0-0.1,0-0.3,0.2-0.4c0.1-0.1,0.3-0.2,0.5-0.3c0.2-0.1,0.4-0.2,0.7-0.2c0.2-0.1,0.5-0.1,0.7-0.1
	c1.1-0.1,2.1,0,2.8,0.5c0.7,0.5,1.1,1.2,1.3,2l2.9,22.3c0.3-1,0.7-2,1.2-2.9c0.4-0.9,0.9-1.7,1.5-2.4c0.6-0.7,1.2-1.3,1.8-1.7
	c0.7-0.4,1.4-0.7,2.3-0.8c1.1-0.1,2.1-0.1,2.9,0.3c0.8,0.3,1.4,0.8,1.9,1.4c0.5,0.6,0.9,1.3,1.2,2.1c0.3,0.8,0.5,1.6,0.6,2.4
	l1.8,14.1c0,0.2,0.1,0.4,0.1,0.7c0.1,0.3,0.2,0.7,0.3,1s0.4,0.6,0.6,0.9c0.3,0.2,0.6,0.3,1.1,0.3c0.7-0.1,1.2-0.4,1.7-1
	c0.4-0.6,0.8-1.2,1.1-2c0.3-0.8,0.5-1.6,0.6-2.5c0.1-0.9,0.2-1.7,0.3-2.5c0-0.7,0.2-1.2,0.4-1.6c0.2-0.3,0.5-0.6,0.8-0.6
	c0.3-0.1,0.7,0,1,0.1c0.4,0.2,0.7,0.4,1,0.7c0.3,0.3,0.5,0.6,0.7,1c0.2,0.4,0.2,0.8,0.2,1.1c-0.2,1.2-0.4,2.4-0.8,3.7
	c-0.3,1.3-0.8,2.5-1.5,3.7c-0.6,1.1-1.5,2.1-2.5,2.9c-1,0.8-2.2,1.3-3.7,1.5c-0.9,0.1-1.7,0-2.5-0.2c-0.7-0.3-1.4-0.6-2-1.1
	c-0.6-0.5-1-1.1-1.4-1.9c-0.4-0.7-0.6-1.5-0.7-2.4l-1.8-13.8c-0.1-0.5-0.1-1-0.2-1.5s-0.2-0.9-0.3-1.2c-0.1-0.3-0.3-0.6-0.5-0.8
	c-0.2-0.2-0.5-0.3-0.8-0.2c-0.5,0.1-1,0.5-1.7,1.2c-0.6,0.8-1.2,1.7-1.8,2.9c-0.5,1.2-1,2.4-1.3,3.8c-0.3,1.4-0.5,2.8-0.5,4.2
	l1.3,9.9c0,0.3,0.1,0.7,0.1,1c0,0.3,0,0.7-0.1,1c-0.1,0.3-0.2,0.5-0.5,0.8c-0.2,0.2-0.6,0.4-1.1,0.4c-0.3,0-0.7,0.1-1.1,0
	s-0.8-0.1-1.1-0.3c-0.3-0.2-0.7-0.4-0.9-0.8s-0.4-0.9-0.5-1.5L95.1,112.7z"/>
<path id="_x34_" class="st0" d="M144.5,146.3c0.7-0.1,1.2-0.4,1.7-1c0.4-0.6,0.8-1.2,1.1-2c0.3-0.8,0.5-1.6,0.6-2.5
	c0.1-0.9,0.2-1.7,0.3-2.5c0.1-0.7,0.2-1.3,0.5-1.6c0.3-0.4,0.6-0.6,0.9-0.6c0.3,0,0.5,0,0.8,0.1c0.3,0.1,0.6,0.3,0.8,0.5
	c0.3,0.2,0.5,0.5,0.7,0.8c0.2,0.3,0.3,0.6,0.3,1c0,0,0,0.1,0,0.2c0,0.1,0,0.2,0,0.3c-0.1,1.2-0.4,2.4-0.7,3.7
	c-0.3,1.3-0.8,2.5-1.5,3.7s-1.5,2.1-2.5,3c-1,0.8-2.2,1.3-3.7,1.5c-1.2,0.2-2.3,0-3.2-0.4s-1.7-1-2.4-1.8c-0.6,0.9-1.3,1.6-2.2,2.3
	c-0.9,0.7-2,1.1-3.3,1.2c-1.3,0.2-2.5,0.1-3.6-0.3c-1.1-0.4-2-1-2.8-1.8c-0.8-0.8-1.5-1.8-2-3.1c-0.5-1.2-0.8-2.5-1-4
	c-0.4-2.8-0.2-5.4,0.4-7.8c0.6-2.4,1.6-4.5,2.9-6.2c1.3-1.8,2.9-3.2,4.7-4.3c1.8-1.1,3.8-1.8,5.9-2c0.9-0.1,1.7,0,2.4,0.5
	c0.6,0.4,1,1.1,1.1,2c0.1,0.6,0.1,1,0,1.2c-0.1,0.2-0.3,0.4-0.6,0.4c-0.3,0-0.6,0.1-1,0.1c-0.3,0-0.7,0-1,0.1
	c-1.3,0.2-2.6,0.6-3.8,1.4c-1.3,0.7-2.3,1.8-3.3,3.1c-0.9,1.3-1.6,2.9-2.1,4.8c-0.5,1.9-0.5,4-0.2,6.5c0.2,1.8,0.8,3.1,1.6,4
	c0.8,0.9,1.8,1.2,3,1.1c0.9-0.1,1.7-0.6,2.2-1.3c0.5-0.8,0.9-1.7,1.2-2.7l-1.4-10.5c0-0.3-0.1-0.6-0.2-0.8c-0.1-0.2-0.1-0.4-0.2-0.6
	c-0.1-0.2-0.1-0.3-0.1-0.4c0-0.1-0.1-0.2-0.1-0.3c0-0.4,0.1-0.7,0.4-0.9c0.3-0.3,0.7-0.4,1.2-0.5c1.1-0.1,2.1,0,2.8,0.5
	c0.7,0.5,1.2,1.2,1.3,2l1.5,11.2c0,0.4,0.1,0.7,0.3,1.1c0.1,0.4,0.3,0.7,0.5,0.9c0.2,0.3,0.5,0.5,0.8,0.6
	C143.7,146.3,144.1,146.4,144.5,146.3z"/>
<path id="_x35_" class="st0" d="M163.2,136.5c0-0.7,0.2-1.2,0.4-1.5c0.2-0.3,0.5-0.5,0.8-0.6c0.3-0.1,0.7,0,1,0.1
	c0.4,0.1,0.7,0.4,1,0.6c0.3,0.3,0.5,0.6,0.7,1c0.2,0.4,0.2,0.8,0.2,1.1c-0.2,0.9-0.5,2.1-0.9,3.4c-0.4,1.3-1,2.5-1.7,3.7
	c-0.7,1.2-1.7,2.3-2.8,3.2c-1.1,0.9-2.4,1.5-4,1.7c-1.3,0.2-2.5,0.1-3.5-0.2c-1.1-0.3-2-0.8-2.7-1.5c-0.8-0.7-1.4-1.6-1.9-2.6
	s-0.8-2.3-1-3.6l-4-30.9c-0.2-1.3-0.2-2.5,0-3.6c0.2-1.1,0.5-2.1,1-2.9c0.5-0.8,1-1.5,1.7-2c0.7-0.5,1.5-0.8,2.3-1
	c1-0.1,1.9-0.1,2.6,0.2s1.4,0.7,1.9,1.2s1,1.2,1.3,1.9c0.4,0.7,0.6,1.5,0.9,2.3c0.2,0.8,0.4,1.6,0.5,2.4c0.1,0.8,0.2,1.5,0.3,2.1
	c0.2,1.7,0.3,3.4,0.2,5.3s-0.2,3.7-0.5,5.5s-0.5,3.6-0.9,5.3c-0.4,1.7-0.7,3.2-1.1,4.5c-0.4,1.3-0.7,2.4-1,3.3
	c-0.3,0.9-0.5,1.4-0.7,1.5l0.5,4c0.2,1.4,0.6,2.5,1.3,3.3c0.7,0.8,1.7,1.1,2.9,1c0.8-0.1,1.5-0.4,2.1-1c0.6-0.6,1.1-1.2,1.6-2
	c0.4-0.8,0.8-1.6,1-2.5S163.1,137.3,163.2,136.5z"/>
<path id="_x36_" class="st0" d="M159.2,104.5c-0.1-0.5-0.2-0.9-0.3-1.1c-0.1-0.3-0.2-0.5-0.3-0.7c-0.1-0.2-0.2-0.3-0.3-0.4
	c-0.1-0.1-0.1-0.2-0.2-0.3c0-0.1,0-0.3,0.2-0.4c0.1-0.1,0.3-0.2,0.5-0.3c0.2-0.1,0.4-0.2,0.7-0.2c0.2-0.1,0.5-0.1,0.7-0.1
	c1.1-0.1,2.1,0,2.8,0.5s1.1,1.2,1.3,2l2.7,21.2c0.5-0.8,0.9-1.6,1.5-2.4c0.5-0.8,1.1-1.4,1.7-2c0.6-0.6,1.2-1.1,1.9-1.5
	s1.4-0.7,2.2-0.8c1.1-0.1,2,0,2.8,0.3c0.8,0.3,1.5,0.8,2.1,1.4c0.6,0.6,1.1,1.4,1.4,2.2c0.3,0.8,0.6,1.7,0.7,2.7
	c0.2,1.3,0.1,2.6-0.2,3.8c-0.3,1.2-0.7,2.3-1.2,3.3c-0.5,1-1.1,1.9-1.8,2.8c-0.7,0.8-1.3,1.5-1.9,2.1c0.2,0.7,0.6,1.4,0.9,2
	c0.4,0.6,0.8,1.2,1.2,1.7c0.5,0.5,1,0.8,1.5,1.1c0.6,0.2,1.2,0.3,1.8,0.2c0.8-0.1,1.5-0.4,2.1-1c0.6-0.6,1.1-1.2,1.6-2
	c0.4-0.8,0.8-1.6,1-2.5c0.2-0.9,0.4-1.7,0.5-2.5c0-0.7,0.2-1.2,0.4-1.6c0.2-0.3,0.5-0.6,0.8-0.6c0.3-0.1,0.7,0,1,0.1
	c0.4,0.2,0.7,0.4,1,0.7c0.3,0.3,0.5,0.6,0.7,1c0.2,0.4,0.2,0.8,0.2,1.1c-0.2,0.9-0.5,2.1-0.9,3.4c-0.4,1.3-1,2.5-1.7,3.7
	c-0.7,1.2-1.7,2.3-2.8,3.2c-1.1,0.9-2.4,1.5-4,1.7c-1.3,0.2-2.6,0-3.8-0.6c-1.2-0.5-2.2-1.3-3.2-2.2c-0.9-0.9-1.7-2-2.3-3.2
	c-0.6-1.2-0.9-2.3-1.1-3.5c0-0.4,0.1-0.7,0.3-1.1c0.3-0.4,0.6-0.9,1-1.3c0.4-0.5,0.9-1,1.3-1.6c0.5-0.6,0.9-1.3,1.3-2
	c0.4-0.7,0.7-1.5,0.9-2.4c0.2-0.9,0.2-1.8,0.1-2.9c-0.1-0.8-0.4-1.5-0.9-2c-0.5-0.5-1-0.7-1.7-0.6c-0.4,0.1-0.9,0.3-1.4,0.6
	c-0.5,0.4-1.1,1-1.6,1.8s-1,1.9-1.5,3.1c-0.5,1.3-0.8,2.9-1.1,4.7l1.5,11.7c0,0.3,0.1,0.7,0.1,1c0,0.3,0,0.7-0.1,1
	c-0.1,0.3-0.2,0.5-0.5,0.8c-0.2,0.2-0.6,0.4-1.1,0.4c-0.3,0-0.7,0-1.1,0c-0.4,0-0.8-0.1-1.1-0.3c-0.3-0.2-0.7-0.4-0.9-0.8
	s-0.4-0.9-0.5-1.5L159.2,104.5z"/>
<path id="_x37_" class="st0" d="M210,104.3c-0.1-0.6-0.2-1.1-0.3-1.4c-0.1-0.3-0.2-0.5-0.3-0.8c0-0.3,0.1-0.6,0.4-0.9
	c0.3-0.3,0.7-0.4,1.2-0.5c1.1-0.1,2.1,0,2.9,0.5c0.8,0.5,1.2,1.2,1.3,2l3.3,25.2c0.2,1.6,0.5,3,0.9,4.1c0.4,1.1,0.9,2,1.6,2.7
	c0.6,0.7,1.3,1.1,2.2,1.4s1.7,0.3,2.7,0.2c1-0.1,1.8-0.4,2.6-0.9c0.8-0.5,1.4-1,1.9-1.7c0.5-0.7,0.9-1.5,1.1-2.4
	c0.2-0.9,0.3-1.8,0.1-2.8c-0.2-1.5-0.6-2.8-1.3-3.7s-1.5-1.7-2.4-2.2c-0.9-0.5-2-0.8-3.1-0.9c-1.1-0.1-2.2-0.1-3.3,0
	c-0.2,0-0.4-0.1-0.6-0.3c-0.2-0.2-0.4-0.5-0.6-0.9c-0.2-0.4-0.3-0.8-0.5-1.2s-0.2-0.8-0.2-1.2c0-0.4,0.1-0.7,0.2-1
	c0.1-0.3,0.4-0.4,0.7-0.5c0.5-0.1,1.2-0.2,1.9-0.4c0.7-0.2,1.5-0.6,2.3-1c0.8-0.4,1.5-1,2.2-1.7c0.7-0.7,1.3-1.5,1.9-2.5
	c0.5-1,0.9-2.1,1.1-3.4c0.2-1.3,0.3-2.7,0-4.4c-0.2-1.3-0.5-2.5-1.1-3.7c-0.6-1.2-1.4-2.2-2.5-3.1c-1.1-0.9-2.4-1.5-4-1.9
	c-1.6-0.4-3.4-0.5-5.5-0.2c-2.7,0.4-5,1.1-6.8,2.2c-1.8,1.1-3.3,2.4-4.3,4c-1,1.6-1.7,3.3-2.1,5.3c-0.3,1.9-0.4,4-0.1,6
	c0.2,1.5,0.5,2.8,0.9,3.8c0.4,1,0.8,1.8,1.2,2.4c0.4,0.6,0.7,1.1,1,1.3c0.3,0.3,0.5,0.4,0.5,0.5c0.4-0.2,0.6-0.1,0.8,0
	c0.2,0.2,0.3,0.4,0.3,0.8c0,0.3,0,0.8-0.1,1.4c-0.1,0.6-0.3,1.3-0.6,1.9c-0.3,0.6-0.6,1.1-1.1,1.4c-0.4,0.3-0.9,0.3-1.4,0
	c-0.3-0.2-0.8-0.6-1.4-1.2c-0.6-0.6-1.3-1.4-2-2.4c-0.7-1-1.3-2.2-1.9-3.7c-0.6-1.5-1.1-3.2-1.3-5.2c-0.4-3.2-0.3-6.1,0.4-8.8
	c0.7-2.7,1.8-5.1,3.3-7.2c1.6-2.1,3.5-3.8,5.9-5.1c2.4-1.3,5.1-2.2,8.1-2.6c2.6-0.3,4.9-0.3,7.1,0.1c2.2,0.4,4.1,1.2,5.8,2.3
	c1.7,1.1,3,2.6,4.1,4.4c1.1,1.8,1.7,3.9,2.1,6.3c0.2,1.9,0.2,3.6,0,5.1c-0.2,1.6-0.7,3-1.3,4.3c-0.6,1.3-1.4,2.5-2.4,3.5
	c-1,1.1-2,2-3.2,2.8c1,0.2,2,0.5,3,0.9c0.9,0.5,1.8,1.1,2.5,1.8c0.8,0.8,1.4,1.7,1.9,2.8c0.5,1.1,0.9,2.4,1.1,3.9
	c0.2,1.7,0.1,3.3-0.3,4.8c-0.4,1.5-1.1,2.9-2,4c-0.9,1.2-2.1,2.2-3.5,2.9s-2.9,1.3-4.6,1.5c-2.2,0.3-4.1,0.2-5.7-0.3
	c-1.6-0.5-2.9-1.3-3.9-2.4c-1-1.1-1.9-2.5-2.4-4.2s-1-3.6-1.3-5.7L210,104.3z"/>
<path id="_x38_" class="st0" d="M266.3,121.8c0-0.3,0.1-0.5,0.4-0.7c0.2-0.2,0.5-0.4,0.8-0.5c0.3-0.1,0.7-0.2,1-0.1
	c0.4,0,0.7,0.1,1,0.3c0.3,0.2,0.5,0.5,0.7,0.9c0.2,0.4,0.2,0.9,0.2,1.6c-0.1,1-0.3,1.9-0.6,2.7c-0.3,0.9-0.8,1.7-1.4,2.4
	c-0.6,0.7-1.3,1.3-2.2,1.8c-0.9,0.5-1.9,0.8-3.1,0.9c-0.6,0.1-1.2,0.1-1.8,0.1c-0.6,0-1.1,0-1.6-0.2c-0.7,1.6-1.6,2.9-2.8,4
	c-1.2,1.1-2.8,1.7-4.7,2c-1.7,0.2-3.3,0.1-4.6-0.4c-1.3-0.5-2.5-1.3-3.4-2.4c-1-1.1-1.7-2.3-2.3-3.8c-0.6-1.5-1-3.1-1.2-4.8
	c-0.3-2.5-0.3-4.8,0-6.8c0.3-2.1,0.8-3.8,1.4-5.3c0.6-1.5,1.2-2.6,1.9-3.5c0.7-0.8,1.2-1.3,1.6-1.3c0.4-0.1,0.9,0.1,1.3,0.4
	c0.4,0.3,0.7,0.8,1,1.3c0.2,0.5,0.3,1,0.3,1.6c0,0.5-0.2,1-0.6,1.3c-0.2,0.5-0.5,1-0.8,1.6c-0.3,0.6-0.5,1.3-0.8,2.2
	c-0.2,0.9-0.4,1.9-0.4,3.1c-0.1,1.2,0,2.7,0.2,4.4c0.2,1.4,0.5,2.7,0.9,3.7c0.4,1,0.9,1.9,1.4,2.5c0.5,0.7,1.1,1.1,1.8,1.4
	c0.6,0.3,1.3,0.4,1.9,0.3c1-0.1,1.7-0.5,2.3-1c0.6-0.6,1-1.3,1.4-2.1c-1.8-1.2-3.2-2.8-4.3-4.8c-1.1-2-1.8-4.2-2.1-6.7
	c-0.1-1.1-0.2-2.1,0-3.1c0.1-1,0.3-1.9,0.7-2.7s0.9-1.4,1.5-2c0.6-0.5,1.4-0.8,2.3-1c0.8-0.1,1.6,0.1,2.4,0.6s1.5,1.2,2.2,2.1
	c0.7,0.9,1.2,2.1,1.7,3.5c0.5,1.4,0.8,2.9,1,4.5c0.2,1.3,0.2,2.5,0.3,3.8c0,1.3-0.1,2.5-0.3,3.7c0.3,0.1,0.5,0.1,0.7,0.1
	c0.2,0,0.4,0,0.7-0.1c0.7-0.1,1.4-0.3,1.9-0.6c0.5-0.3,1-0.8,1.3-1.2c0.3-0.5,0.6-1.1,0.8-1.7C266.2,123.1,266.3,122.5,266.3,121.8z
	"/>
<path id="_x39_" class="st0" d="M286.7,128c0.7-0.1,1.2-0.4,1.7-1c0.4-0.6,0.8-1.2,1.1-2c0.3-0.8,0.5-1.6,0.6-2.5
	c0.1-0.9,0.2-1.7,0.3-2.5c0.1-0.7,0.2-1.3,0.5-1.6c0.3-0.4,0.6-0.6,0.9-0.6c0.3,0,0.5,0,0.8,0.1c0.3,0.1,0.6,0.3,0.8,0.5
	c0.3,0.2,0.5,0.5,0.7,0.8c0.2,0.3,0.3,0.6,0.3,1c0,0,0,0.1,0,0.2s0,0.2,0,0.3c-0.1,1.2-0.4,2.4-0.7,3.7c-0.3,1.3-0.8,2.5-1.5,3.7
	c-0.6,1.1-1.5,2.1-2.5,3c-1,0.8-2.2,1.3-3.7,1.5c-1.2,0.2-2.3,0-3.2-0.4c-1-0.4-1.7-1-2.4-1.8c-0.6,0.9-1.3,1.6-2.2,2.3
	c-0.9,0.7-2,1.1-3.3,1.2c-1.3,0.2-2.5,0.1-3.6-0.3c-1.1-0.4-2-1-2.8-1.8c-0.8-0.8-1.5-1.8-2-3.1c-0.5-1.2-0.9-2.5-1-4
	c-0.4-2.8-0.2-5.4,0.4-7.8c0.6-2.4,1.6-4.5,2.9-6.2c1.3-1.8,2.9-3.2,4.7-4.3c1.8-1.1,3.8-1.8,5.9-2c0.9-0.1,1.7,0,2.4,0.5
	c0.6,0.4,1,1.1,1.1,2c0.1,0.6,0.1,1,0,1.2c-0.1,0.2-0.3,0.4-0.6,0.4c-0.3,0-0.6,0.1-1,0.1c-0.3,0-0.7,0-1,0.1
	c-1.3,0.2-2.6,0.6-3.8,1.4c-1.3,0.7-2.3,1.8-3.3,3.1c-0.9,1.3-1.6,2.9-2.1,4.8c-0.5,1.9-0.5,4-0.2,6.5c0.2,1.8,0.8,3.1,1.6,4
	c0.8,0.9,1.8,1.2,3,1.1c0.9-0.1,1.7-0.6,2.2-1.3c0.5-0.8,0.9-1.7,1.2-2.7l-1.4-10.5c0-0.3-0.1-0.6-0.2-0.8c-0.1-0.2-0.1-0.4-0.2-0.6
	c-0.1-0.2-0.1-0.3-0.1-0.4s-0.1-0.2-0.1-0.3c0-0.4,0.1-0.7,0.4-0.9c0.3-0.3,0.7-0.4,1.2-0.5c1.1-0.1,2.1,0,2.8,0.5
	c0.7,0.5,1.2,1.2,1.3,2l1.5,11.2c0,0.4,0.1,0.7,0.3,1.1c0.1,0.4,0.3,0.7,0.5,0.9c0.2,0.3,0.5,0.5,0.8,0.6
	C285.9,128,286.3,128,286.7,128z"/>
<path id="_x31_0" class="st0" d="M306.9,129.9c-0.8,0.1-1.6,0.1-2.5,0c-0.9-0.1-1.7-0.5-2.4-1s-1.4-1.2-2-2.2s-0.9-2.1-1.1-3.7
	c-0.3-2.2-0.3-4.5,0-7.1c0.3-2.5,0.8-5.3,1.5-8.4l-5.2,0.7l-0.8,0.1c0.1,0.7,0.1,1.5,0.2,2.5c0.1,1,0.1,2.1,0.1,3.3
	c0,1.2,0,2.4-0.1,3.6c-0.1,1.2-0.2,2.3-0.4,3.4c-0.1,0.7-0.4,1.2-0.9,1.4c-0.5,0.2-0.9,0.2-1.4-0.1c-0.5-0.2-0.9-0.6-1.3-1.1
	c-0.4-0.5-0.5-1-0.4-1.6c0.1-0.7,0.1-1.6,0.1-2.6c0-1,0-2.1-0.1-3.2c-0.1-1.1-0.1-2.2-0.2-3.3c-0.1-1.1-0.2-2.1-0.3-3
	c-0.9-0.4-1.7-0.9-2.3-1.5c-0.6-0.6-1-1.5-1.2-2.5c-0.1-0.5,0-0.9,0.1-1.3c0.1-0.4,0.3-0.8,0.6-1.1c0.3-0.3,0.6-0.6,1-0.8
	c0.4-0.2,0.8-0.3,1.3-0.4c0.4-0.1,0.8,0,1.3,0c0.4,0.1,0.9,0.2,1.3,0.4c0.4,0.2,0.8,0.6,1.2,1c0.4,0.4,0.7,1,1,1.6c0.6,0,1,0,1.4,0
	c0.4,0,0.7,0,1,0c0.3,0,0.5,0,0.7-0.1c0.2,0,0.4,0,0.5-0.1l3.6-0.5c0.2,0,0.5,0.1,0.9,0.3c0.4,0.2,0.8,0.5,1.3,0.8
	c0.4,0.3,0.8,0.7,1.1,1.1c0.3,0.4,0.5,0.8,0.4,1.2c0,0.1,0,0.5-0.1,1c-0.1,0.5-0.2,1.2-0.3,2c-0.1,0.8-0.3,1.7-0.4,2.8
	c-0.1,1-0.2,2.1-0.3,3.3c-0.1,1.1-0.1,2.3-0.1,3.5c0,1.2,0.1,2.4,0.2,3.5c0.1,0.5,0.2,0.9,0.3,1.3c0.2,0.4,0.4,0.8,0.7,1.1
	c0.3,0.3,0.6,0.5,1,0.7c0.4,0.2,0.8,0.2,1.3,0.1c0.8-0.1,1.4-0.4,1.9-1c0.5-0.6,0.9-1.2,1.2-2c0.3-0.8,0.5-1.6,0.6-2.5
	c0.1-0.9,0.2-1.7,0.3-2.5c0-0.7,0.2-1.3,0.5-1.6c0.3-0.4,0.6-0.6,0.9-0.6c0.3,0,0.6,0,0.9,0.1c0.3,0.1,0.6,0.3,0.9,0.5
	c0.3,0.2,0.5,0.5,0.7,0.8c0.2,0.3,0.3,0.6,0.3,1c0,0.1,0,0.2,0,0.3c0,0.1,0,0.1,0,0.2c-0.2,1.2-0.4,2.4-0.8,3.7
	c-0.3,1.3-0.8,2.5-1.5,3.7c-0.6,1.1-1.5,2.1-2.5,3C309.6,129.2,308.4,129.7,306.9,129.9z"/>
<path id="_x31_1" class="st0" d="M320.6,128.1c-1.3,0.2-2.6,0.1-3.7-0.2c-1.1-0.3-2.2-0.9-3-1.7c-0.9-0.8-1.6-1.9-2.2-3.2
	c-0.6-1.3-1-2.9-1.2-4.7c-0.3-2.6-0.3-5,0.2-7.1c0.5-2.1,1.2-4,2.3-5.7c1.1-1.6,2.4-3,3.9-4.1c1.5-1.1,3.2-1.9,5.1-2.4l-2-15.4
	c-0.1-0.5-0.2-0.9-0.3-1.1c-0.1-0.3-0.2-0.5-0.3-0.6c-0.1-0.2-0.2-0.3-0.3-0.4c-0.1-0.1-0.1-0.2-0.2-0.3c0-0.1,0-0.3,0.2-0.4
	c0.1-0.1,0.3-0.2,0.5-0.3c0.2-0.1,0.4-0.2,0.7-0.2c0.2-0.1,0.5-0.1,0.7-0.1c1.1-0.1,2.1,0,2.8,0.5c0.7,0.5,1.1,1.2,1.3,2l4.7,36.5
	c0,0.4,0.1,0.7,0.3,1.1c0.1,0.4,0.3,0.7,0.5,0.9c0.2,0.3,0.5,0.5,0.8,0.6c0.3,0.1,0.7,0.2,1.1,0.1c0.7-0.1,1.2-0.4,1.7-1
	c0.4-0.6,0.8-1.2,1.1-2c0.3-0.8,0.5-1.6,0.6-2.5c0.1-0.9,0.2-1.7,0.3-2.5c0-0.7,0.2-1.3,0.5-1.6c0.3-0.4,0.6-0.6,0.9-0.6
	c0.3,0,0.6,0,0.9,0.1c0.3,0.1,0.6,0.3,0.9,0.5c0.3,0.2,0.5,0.5,0.7,0.8c0.2,0.3,0.3,0.6,0.3,1c0,0,0,0.1,0,0.2c0,0.1,0,0.2,0,0.3
	c-0.1,1.2-0.4,2.4-0.7,3.7c-0.3,1.3-0.8,2.5-1.5,3.7c-0.7,1.1-1.5,2.1-2.5,3c-1,0.8-2.2,1.3-3.7,1.5c-1.2,0.2-2.2,0-3.2-0.3
	c-0.9-0.4-1.7-0.9-2.3-1.7c-0.7,0.9-1.4,1.6-2.4,2.2C323,127.6,321.9,128,320.6,128.1z"/>
<path id="_x31_2" class="st0" d="M347.5,112.3c0.1,0.9,0,1.6-0.4,2c-0.4,0.5-0.8,0.7-1.4,0.8c-0.4,0-0.7,0-1.1-0.1
	c-0.4-0.1-0.8-0.3-1.1-0.5c-0.3-0.2-0.6-0.5-0.9-0.9c-0.2-0.4-0.4-0.8-0.4-1.2l-4.3-33.5c-0.1-0.6-0.3-1.1-0.5-1.4
	c-0.3-0.3-0.4-0.6-0.4-0.9c0-0.2,0.1-0.5,0.4-0.7c0.3-0.2,0.8-0.3,1.5-0.4c0.5-0.1,0.9-0.1,1.4,0c0.5,0,0.9,0.1,1.3,0.3
	s0.7,0.4,1,0.7c0.3,0.3,0.4,0.7,0.5,1.3L347.5,112.3z"/>
<path id="_x31_3" class="st0" d="M345.5,117.9c0.9-0.1,1.8,0.1,2.5,0.6c0.7,0.5,1.1,1.3,1.3,2.2c0.1,0.4,0,0.8-0.1,1.2
	c-0.1,0.4-0.3,0.8-0.6,1.1c-0.3,0.3-0.6,0.6-1,0.8c-0.4,0.2-0.8,0.4-1.3,0.4c-0.4,0.1-0.9,0-1.3-0.1c-0.4-0.1-0.8-0.3-1.1-0.6
	c-0.3-0.2-0.6-0.6-0.8-0.9c-0.2-0.4-0.4-0.8-0.4-1.2c-0.1-0.5,0-0.9,0.1-1.3c0.1-0.4,0.3-0.8,0.6-1.1c0.3-0.3,0.6-0.6,1-0.8
	C344.7,118.1,345.1,118,345.5,117.9z"/>
</svg>
